<svg xmlns="http://www.w3.org/2000/svg" viewBox="0 0 1254 1254" fill="none">
  <rect width="1254" height="1254" rx="280" fill="#EAE4FB"/>
  <g transform="translate(133 132) scale(0.79)">
    <path d="M498.637 274.82H780.676L1039.33 859.357H219.521L498.637 274.82Z" fill="url(#g0)"/>
    <path d="M352.688 1114.13H902.153C918.826 1114.13 932.341 1127.65 932.341 1144.32C932.341 1160.99 918.826 1174.51 902.153 1174.51H352.688C336.016 1174.51 322.5 1160.99 322.5 1144.32C322.5 1127.65 336.016 1114.13 352.688 1114.13ZM722.035 1032.3C731.392 1063.97 738.045 1084.13 743.591 1096.5C746.373 1102.7 748.892 1106.98 751.357 1109.77C752.731 1111.32 754.095 1112.42 755.485 1113.13H497.524C505.038 1107.85 510.61 1100.68 515.472 1088.8C520.586 1076.31 524.926 1058.58 529.924 1032.3H722.035Z" fill="#2F2F5C" stroke="#2F2F5C"/>
    <path d="M915.86 230.979H1078.79C1127.21 230.979 1166.47 270.235 1166.47 318.66V879.816C1166.47 928.24 1127.21 967.496 1078.79 967.496H175.681C127.256 967.496 88 928.24 88 879.816V318.66C88 270.235 127.256 230.979 175.681 230.979H383.664" stroke="#2F2F5C" stroke-width="57"/>
    <path d="M882.97 128.686H421.186V222.212C421.186 239.967 435.58 254.361 453.336 254.361H847.898C867.268 254.361 882.97 238.659 882.97 219.289V128.686Z" fill="#2F2F5C"/>
    <path d="M421.186 128.686H882.97L844.366 84.9338C841.037 81.1611 836.248 79 831.216 79H472.939C468.83 79 464.91 80.7306 462.141 83.7676L421.186 128.686Z" fill="#EDEBFF"/>
    <path d="M963.919 829.495H932.615V523.801C930.93 519.615 929.259 516.866 927.013 514.619C924.606 512.21 921.29 510.123 915.915 507.635L913.647 506.585L913.669 506.538H826.909L826.129 506.517C817.344 506.073 810.329 499.056 809.885 490.302L809.882 490.242L809.862 489.458V385.594L809.876 384.944C810.417 370.658 827.276 363.408 838.006 372.555L838.548 373.035L839.018 373.484L943.79 477.269C945.646 479.108 946.971 481.196 947.804 483.395L947.905 483.479C958.361 492.34 961.714 506.544 963.846 517.903L963.919 518.272V829.495Z" fill="#2F2F5C" stroke="#2F2F5C" stroke-width="5"/>
    <line x1="406.5" y1="621.831" x2="810.825" y2="621.831" stroke="url(#g1)" stroke-width="37" stroke-linecap="round"/>
    <line x1="406.5" y1="718.28" x2="810.825" y2="718.28" stroke="url(#g1)" stroke-width="37" stroke-linecap="round"/>
    <line x1="406.5" y1="808.883" x2="810.825" y2="808.883" stroke="url(#g1)" stroke-width="37" stroke-linecap="round"/>
  </g>
  <defs>
    <linearGradient id="g0" x1="629" y1="275" x2="629" y2="859" gradientUnits="userSpaceOnUse">
      <stop stop-color="#7779FF"/><stop offset="0.11" stop-color="#7779FF"/>
      <stop offset="0.53" stop-color="#fff" stop-opacity="0.26"/>
    </linearGradient>
    <linearGradient id="g1" x1="388" y1="700" x2="829" y2="700" gradientUnits="userSpaceOnUse">
      <stop stop-color="#0B3C8F"/><stop offset="1" stop-color="#589EF6"/>
    </linearGradient>
  </defs>
</svg>
